<svg width="162" height="41" viewBox="0 0 162 41" fill="none" xmlns="http://www.w3.org/2000/svg">
<circle cx="18.5" cy="20.5" r="18.5" fill="url(#paint0_linear_1_1326)"/>
<path d="M18.5 8.56641V32.4337M23.9244 12.9059H15.7878C14.7808 12.9059 13.815 13.306 13.1029 14.018C12.3908 14.7301 11.9907 15.6959 11.9907 16.703C11.9907 17.71 12.3908 18.6758 13.1029 19.3879C13.815 20.1 14.7808 20.5 15.7878 20.5H21.2122C22.2192 20.5 23.185 20.9001 23.8971 21.6122C24.6092 22.3243 25.0093 23.2901 25.0093 24.2971C25.0093 25.3042 24.6092 26.27 23.8971 26.982C23.185 27.6941 22.2192 28.0942 21.2122 28.0942H11.9907" stroke="black" stroke-width="2.16975" stroke-linecap="round" stroke-linejoin="round"/>
<path d="M53.2084 29H49.2481L49.2731 26.0767H53.2084C54.1911 26.0767 55.0198 25.856 55.6944 25.4146C56.3691 24.9648 56.8771 24.311 57.2186 23.4532C57.5684 22.5953 57.7433 21.5584 57.7433 20.3425V19.4555C57.7433 18.5227 57.6433 17.7023 57.4434 16.9944C57.2519 16.2865 56.9645 15.691 56.5814 15.2079C56.1983 14.7249 55.7278 14.3626 55.1697 14.121C54.6117 13.8712 53.9704 13.7462 53.2458 13.7462H49.1732V10.8104H53.2458C54.4618 10.8104 55.5737 11.0186 56.5814 11.4351C57.5975 11.8432 58.4762 12.4303 59.2174 13.1966C59.9587 13.9628 60.5292 14.8789 60.9289 15.945C61.337 17.0027 61.5411 18.1812 61.5411 19.4805V20.3425C61.5411 21.6334 61.337 22.8119 60.9289 23.8779C60.5292 24.944 59.9587 25.8601 59.2174 26.6264C58.4845 27.3843 57.6058 27.9714 56.5814 28.3879C55.5653 28.796 54.441 29 53.2084 29ZM51.3719 10.8104V29H47.6241V10.8104H51.3719ZM71.5478 10.8104V29H67.8125V10.8104H71.5478ZM77.1446 10.8104V13.7462H62.3031V10.8104H77.1446ZM86.6892 10.8104H89.8623L94.5347 24.1653L99.207 10.8104H102.38L95.8089 29H93.2604L86.6892 10.8104ZM84.9776 10.8104H88.1383L88.713 23.828V29H84.9776V10.8104ZM100.931 10.8104H104.104V29H100.356V23.828L100.931 10.8104ZM106.59 22.3788V22.1164C106.59 21.1253 106.732 20.2134 107.015 19.3805C107.298 18.5393 107.71 17.8106 108.252 17.1943C108.793 16.578 109.459 16.0991 110.251 15.7576C111.042 15.4078 111.95 15.2329 112.974 15.2329C113.998 15.2329 114.91 15.4078 115.71 15.7576C116.51 16.0991 117.18 16.578 117.721 17.1943C118.271 17.8106 118.687 18.5393 118.971 19.3805C119.254 20.2134 119.395 21.1253 119.395 22.1164V22.3788C119.395 23.3616 119.254 24.2735 118.971 25.1147C118.687 25.9476 118.271 26.6763 117.721 27.301C117.18 27.9173 116.514 28.3962 115.723 28.7377C114.931 29.0791 114.023 29.2499 112.999 29.2499C111.975 29.2499 111.063 29.0791 110.263 28.7377C109.472 28.3962 108.801 27.9173 108.252 27.301C107.71 26.6763 107.298 25.9476 107.015 25.1147C106.732 24.2735 106.59 23.3616 106.59 22.3788ZM110.188 22.1164V22.3788C110.188 22.9451 110.238 23.474 110.338 23.9654C110.438 24.4568 110.596 24.8899 110.813 25.2646C111.038 25.6311 111.329 25.9184 111.687 26.1266C112.045 26.3349 112.483 26.439 112.999 26.439C113.499 26.439 113.928 26.3349 114.286 26.1266C114.644 25.9184 114.931 25.6311 115.148 25.2646C115.364 24.8899 115.523 24.4568 115.623 23.9654C115.731 23.474 115.785 22.9451 115.785 22.3788V22.1164C115.785 21.5668 115.731 21.0504 115.623 20.5673C115.523 20.076 115.36 19.6429 115.135 19.2681C114.919 18.885 114.631 18.5851 114.273 18.3686C113.915 18.1521 113.482 18.0438 112.974 18.0438C112.466 18.0438 112.033 18.1521 111.675 18.3686C111.325 18.5851 111.038 18.885 110.813 19.2681C110.596 19.6429 110.438 20.076 110.338 20.5673C110.238 21.0504 110.188 21.5668 110.188 22.1164ZM125.13 18.3686V29H121.532V15.4828H124.905L125.13 18.3686ZM124.605 21.7666H123.63C123.63 20.7672 123.76 19.8677 124.018 19.0682C124.276 18.2603 124.638 17.5732 125.105 17.0069C125.571 16.4322 126.125 15.995 126.766 15.6951C127.416 15.387 128.14 15.2329 128.94 15.2329C129.573 15.2329 130.152 15.3245 130.676 15.5077C131.201 15.691 131.651 15.9825 132.026 16.3822C132.409 16.782 132.7 17.3109 132.9 17.9688C133.108 18.6268 133.212 19.4305 133.212 20.3799V29H129.59V20.3675C129.59 19.7678 129.506 19.3014 129.34 18.9683C129.173 18.6351 128.927 18.4019 128.603 18.2687C128.286 18.1271 127.895 18.0563 127.428 18.0563C126.945 18.0563 126.525 18.1521 126.167 18.3436C125.817 18.5352 125.525 18.8017 125.292 19.1432C125.067 19.4763 124.896 19.8677 124.78 20.3175C124.663 20.7672 124.605 21.2503 124.605 21.7666ZM142.17 29.2499C141.12 29.2499 140.179 29.0833 139.346 28.7501C138.514 28.4087 137.806 27.9381 137.223 27.3385C136.648 26.7388 136.207 26.0434 135.898 25.2521C135.59 24.4526 135.436 23.6031 135.436 22.7036V22.2039C135.436 21.1795 135.582 20.2425 135.873 19.393C136.165 18.5435 136.581 17.8064 137.123 17.1818C137.672 16.5571 138.339 16.0782 139.122 15.7451C139.904 15.4036 140.787 15.2329 141.77 15.2329C142.728 15.2329 143.577 15.3911 144.319 15.7076C145.06 16.0241 145.68 16.4739 146.18 17.0569C146.688 17.6398 147.071 18.3394 147.329 19.1556C147.588 19.9635 147.717 20.863 147.717 21.8541V23.3532H136.973V20.9546H144.181V20.6798C144.181 20.1801 144.09 19.7345 143.906 19.343C143.731 18.9433 143.465 18.6268 143.107 18.3936C142.749 18.1604 142.291 18.0438 141.733 18.0438C141.258 18.0438 140.85 18.1479 140.508 18.3561C140.167 18.5643 139.888 18.8558 139.671 19.2306C139.463 19.6054 139.305 20.0468 139.197 20.5548C139.097 21.0546 139.047 21.6042 139.047 22.2039V22.7036C139.047 23.245 139.122 23.7447 139.272 24.2028C139.43 24.6608 139.65 25.0564 139.934 25.3896C140.225 25.7227 140.575 25.9809 140.983 26.1641C141.399 26.3474 141.87 26.439 142.395 26.439C143.044 26.439 143.648 26.314 144.206 26.0642C144.773 25.806 145.26 25.4187 145.668 24.9024L147.417 26.8013C147.134 27.2094 146.746 27.6008 146.255 27.9756C145.772 28.3504 145.189 28.6585 144.506 28.9001C143.823 29.1333 143.044 29.2499 142.17 29.2499ZM153.601 27.4759L157.186 15.4828H161.047L155.612 31.0363C155.496 31.3778 155.337 31.7443 155.137 32.1357C154.946 32.5271 154.684 32.8978 154.35 33.2476C154.026 33.6057 153.613 33.8972 153.114 34.1221C152.622 34.3469 152.018 34.4594 151.302 34.4594C150.961 34.4594 150.682 34.4385 150.465 34.3969C150.249 34.3553 149.99 34.297 149.691 34.222V31.586C149.782 31.586 149.878 31.586 149.978 31.586C150.078 31.5943 150.174 31.5985 150.265 31.5985C150.74 31.5985 151.127 31.5444 151.427 31.4361C151.727 31.3278 151.968 31.1613 152.152 30.9364C152.335 30.7198 152.481 30.4367 152.589 30.0869L153.601 27.4759ZM152.102 15.4828L155.037 25.2771L155.55 29.0874L153.101 29.3498L148.241 15.4828H152.102Z" fill="#E1E1E6"/>
<defs>
<linearGradient id="paint0_linear_1_1326" x1="18.5" y1="2" x2="18.5" y2="39" gradientUnits="userSpaceOnUse">
<stop stop-color="#00B37E"/>
<stop offset="1" stop-color="#096249"/>
</linearGradient>
</defs>
</svg>
